<?xml version="1.0" ?><svg id="Line" style="enable-background:new 0 0 128 128;" version="1.1" viewBox="0 0 128 128" xml:space="preserve" xmlns="http://www.w3.org/2000/svg" xmlns:xlink="http://www.w3.org/1999/xlink"><g><path d="M36.866,54.009l-19.149,2.59C17.218,56.227,16.606,56,15.938,56c-1.654,0-3,1.346-3,3c0,1.118,0.622,2.084,1.531,2.6   l3.542,23.549C18.086,85.644,18.512,86,18.999,86c0.045,0,0.09-0.003,0.136-0.009l22-3c0.265-0.036,0.505-0.177,0.665-0.391   s0.229-0.482,0.189-0.747l-4-27C37.909,54.313,37.41,53.94,36.866,54.009z M15.938,58c0.552,0,1,0.448,1,1s-0.448,1-1,1   s-1-0.448-1-1S15.386,58,15.938,58z M19.842,83.876l-3.299-21.938c1.365-0.281,2.394-1.492,2.394-2.938   c0-0.185-0.022-0.365-0.055-0.54l17.272-2.337l3.707,25.022L19.842,83.876z"/><path d="M70,40c-0.669,0-1.281,0.227-1.78,0.599l-19.149-2.59c-0.543-0.07-1.043,0.304-1.123,0.845l-4,27   c-0.039,0.265,0.029,0.533,0.189,0.747s0.4,0.354,0.665,0.391l22,3C66.849,69.997,66.894,70,66.938,70   c0.487,0,0.913-0.356,0.988-0.852L71.468,45.6C72.378,45.085,73,44.119,73,43C73,41.346,71.654,40,70,40z M71,43   c0,0.552-0.448,1-1,1s-1-0.448-1-1s0.448-1,1-1S71,42.448,71,43z M66.096,67.876l-20.021-2.73l3.707-25.022l17.272,2.337   C67.022,42.636,67,42.815,67,43c0,1.447,1.029,2.657,2.394,2.938L66.096,67.876z"/><path d="M127,22c0-0.13-0.026-0.26-0.077-0.382c-0.101-0.245-0.296-0.44-0.541-0.541C126.26,21.026,126.13,21,126,21H2   c-0.13,0-0.26,0.026-0.382,0.077c-0.245,0.101-0.44,0.296-0.541,0.541C1.026,21.74,1,21.87,1,22v84c0,0.13,0.026,0.26,0.077,0.382   c0.101,0.245,0.296,0.44,0.541,0.541C1.74,106.974,1.87,107,2,107h124c0.13,0,0.26-0.026,0.382-0.077   c0.245-0.101,0.44-0.296,0.541-0.541C126.974,106.26,127,106.13,127,106V22z M8,28h112v72H8V28z M120.586,26H7.414l-3-3h119.172   L120.586,26z M6,27.414v73.172l-3,3V24.414L6,27.414z M7.414,102h113.172l3,3H4.414L7.414,102z M122,100.586V27.414l3-3v79.172   L122,100.586z"/><path d="M114,34c-0.883,0-1.67,0.391-2.22,1H81.22c-0.549-0.609-1.337-1-2.22-1c-1.654,0-3,1.346-3,3c0,0.883,0.391,1.67,1,2.22V88   c0,0.553,0.447,1,1,1h37c0.553,0,1-0.447,1-1V39.22c0.609-0.549,1-1.337,1-2.22C117,35.346,115.654,34,114,34z M114,36   c0.552,0,1,0.448,1,1s-0.448,1-1,1s-1-0.448-1-1S113.448,36,114,36z M79,36c0.552,0,1,0.448,1,1s-0.448,1-1,1s-1-0.448-1-1   S78.448,36,79,36z M114,87H79V40c1.654,0,3-1.346,3-3h29c0,1.654,1.346,3,3,3V87z"/><path d="M111,47H82c-0.553,0-1,0.447-1,1s0.447,1,1,1h29c0.553,0,1-0.447,1-1S111.553,47,111,47z"/><path d="M111,52H82c-0.553,0-1,0.447-1,1s0.447,1,1,1h29c0.553,0,1-0.447,1-1S111.553,52,111,52z"/><path d="M111,57H82c-0.553,0-1,0.447-1,1s0.447,1,1,1h29c0.553,0,1-0.447,1-1S111.553,57,111,57z"/><path d="M111,62H82c-0.553,0-1,0.447-1,1s0.447,1,1,1h29c0.553,0,1-0.447,1-1S111.553,62,111,62z"/><path d="M111,67H82c-0.553,0-1,0.447-1,1s0.447,1,1,1h29c0.553,0,1-0.447,1-1S111.553,67,111,67z"/><path d="M111,72H82c-0.553,0-1,0.447-1,1s0.447,1,1,1h29c0.553,0,1-0.447,1-1S111.553,72,111,72z"/></g></svg>